<mxfile host="app.diagrams.net" modified="2023-11-10T12:43:57.112Z" agent="Mozilla/5.0 (Windows NT 10.0; Win64; x64) AppleWebKit/537.36 (KHTML, like Gecko) Chrome/119.0.0.0 Safari/537.36" version="22.1.0" etag="c0k7aD8CwZbQs3UTI4C4" type="github">
  <diagram name="Page-1" id="S1LFnV9RINtvDuw9jA4C">
    <mxGraphModel>
      <root>
        <mxCell id="0" />
        <mxCell id="1" parent="0" />
      </root>
    </mxGraphModel>
  </diagram>
</mxfile>
